<svg width="25" height="25" viewBox="0 0 25 25" fill="none" xmlns="http://www.w3.org/2000/svg">
<g id="entypo:cross">
<path id="Vector" d="M17.8815 17.9203C17.6105 18.1913 17.243 18.3435 16.8598 18.3435C16.4766 18.3435 16.1091 18.1913 15.8382 17.9203L12.6461 14.2719L9.45411 17.9191C9.32034 18.0551 9.16098 18.1632 8.98521 18.2373C8.80944 18.3113 8.62075 18.3499 8.43001 18.3506C8.23928 18.3514 8.05028 18.3144 7.87391 18.2418C7.69754 18.1692 7.5373 18.0623 7.40243 17.9275C7.26756 17.7926 7.16073 17.6323 7.08809 17.456C7.01546 17.2796 6.97847 17.0906 6.97924 16.8999C6.98002 16.7091 7.01855 16.5204 7.09262 16.3447C7.16669 16.1689 7.27482 16.0095 7.41079 15.8758L10.7316 12.0829L7.40958 8.28766C7.27362 8.15389 7.16548 7.99452 7.09142 7.81875C7.01735 7.64299 6.97882 7.45429 6.97804 7.26356C6.97726 7.07282 7.01426 6.88382 7.08689 6.70745C7.15952 6.53109 7.26636 6.37085 7.40123 6.23598C7.5361 6.1011 7.69634 5.99427 7.87271 5.92164C8.04907 5.84901 8.23807 5.81201 8.42881 5.81279C8.61954 5.81356 8.80824 5.8521 8.98401 5.92616C9.15978 6.00023 9.31914 6.10836 9.45291 6.24433L12.6461 9.8939L15.8382 6.24433C15.9719 6.10836 16.1313 6.00023 16.3071 5.92616C16.4828 5.8521 16.6715 5.81356 16.8623 5.81279C17.053 5.81201 17.242 5.84901 17.4184 5.92164C17.5947 5.99427 17.755 6.1011 17.8898 6.23598C18.0247 6.37085 18.1315 6.53109 18.2042 6.70745C18.2768 6.88382 18.3138 7.07282 18.313 7.26356C18.3122 7.45429 18.2737 7.64299 18.1996 7.81875C18.1256 7.99452 18.0174 8.15389 17.8815 8.28766L14.5606 12.0829L17.8815 15.8758C18.0158 16.01 18.1224 16.1693 18.1951 16.3447C18.2678 16.5201 18.3052 16.7082 18.3052 16.898C18.3052 17.0879 18.2678 17.2759 18.1951 17.4514C18.1224 17.6268 18.0158 17.7861 17.8815 17.9203Z" fill="#162427"/>
</g>
</svg>
