<svg width="24" height="24" viewBox="0 0 24 24" fill="none" xmlns="http://www.w3.org/2000/svg">
<g id="eva:arrow-down-fill">
<path id="Vector" d="M12 17C11.7447 16.9987 11.4929 16.9406 11.2629 16.8299C11.0328 16.7192 10.8303 16.5587 10.67 16.36L6.45999 11.26C6.21399 10.953 6.05918 10.583 6.01321 10.1923C5.96724 9.80153 6.03196 9.40574 6.19999 9.05C6.33627 8.74083 6.55867 8.47741 6.84061 8.29122C7.12256 8.10503 7.45214 8.00393 7.78999 8H16.21C16.5478 8.00393 16.8774 8.10503 17.1594 8.29122C17.4413 8.47741 17.6637 8.74083 17.8 9.05C17.968 9.40574 18.0327 9.80153 17.9868 10.1923C17.9408 10.583 17.786 10.953 17.54 11.26L13.33 16.36C13.1697 16.5587 12.9672 16.7192 12.7371 16.8299C12.5071 16.9406 12.2553 16.9987 12 17Z" fill="#162427"/>
</g>
</svg>
